<svg xmlns="http://www.w3.org/2000/svg" version="1.1" xmlns:xlink="http://www.w3.org/1999/xlink" xmlns:svgjs="http://svgjs.dev/svgjs" width="37" height="59"><svg width="37" height="59" viewBox="0 0 37 59" fill="none" xmlns="http://www.w3.org/2000/svg">
<path d="M30.6285 4.73661C30.7419 4.73949 30.8527 4.77198 30.9498 4.83083C31.0469 4.88969 31.1269 4.97288 31.1819 5.07217C31.2369 5.17146 31.2651 5.2834 31.2636 5.39691C31.262 5.51042 31.2309 5.62157 31.1732 5.71934L26.0144 14.4658C25.956 14.5644 25.8727 14.6459 25.7728 14.702C25.6728 14.7581 25.5599 14.7868 25.4453 14.7854C25.3307 14.7839 25.2185 14.7522 25.1201 14.6936C25.0216 14.6349 24.9404 14.5513 24.8845 14.4513L19.8921 5.44477C19.8365 5.34432 19.8083 5.23093 19.8105 5.1161C19.8128 5.00126 19.8453 4.88906 19.9049 4.79085C19.9644 4.69264 20.0489 4.6119 20.1496 4.55683C20.2504 4.50176 20.364 4.4743 20.4788 4.47723L30.6285 4.73661Z" fill="#40C9A2"></path>
<path d="M4.4054 24.1923C4.4054 24.1923 5.51817 27.7278 11.889 30.2914C18.2599 32.855 29.8884 34.4465 29.8884 34.4465L29.8863 34.4554C30.4678 34.5462 31.0239 34.7568 31.5196 35.0739C32.0153 35.391 32.4397 35.8077 32.7658 36.2975C33.092 36.7873 33.3127 37.3396 33.4141 37.9192C33.5155 38.4989 33.4953 39.0933 33.3548 39.6647C33.2143 40.2361 32.9566 40.7721 32.5979 41.2387C32.2393 41.7052 31.7876 42.0921 31.2716 42.3748C30.7555 42.6576 30.1863 42.8299 29.6001 42.881C29.0138 42.9321 28.4234 42.8608 27.8662 42.6716C26.0809 42.2733 14.1085 39.4868 8.63654 35.206C5.82238 33.0045 4.72757 30.4082 4.35328 28.2894C4.10013 26.9336 4.11785 25.5412 4.4054 24.1923Z" fill="#2F9C95"></path>
<path d="M5.20487 35.6709C5.20487 35.6709 6.42685 39.1554 11.3139 41.6804C16.2009 44.2054 24.7532 45.7704 24.7532 45.7704L24.7528 45.7792C26.0402 46.0458 27.2511 47.3768 27.7034 49.1867C28.2721 51.4627 27.4265 53.634 25.8149 54.0368C25.3 54.1584 24.7591 54.1027 24.2799 53.8785C22.9486 53.4864 14.0065 50.7435 9.55975 46.5261C7.6328 44.6743 6.27753 42.3086 5.65478 39.7097C5.31182 38.392 5.16029 37.0318 5.20487 35.6709Z" fill="#2F9C95"></path>
<path d="M5.38203 31.5289C5.38203 31.5289 5.21617 27.8261 10.3238 23.2348C15.4314 18.6436 25.8096 13.1646 25.8096 13.1646L25.8045 13.1566C26.3199 12.8722 26.7705 12.4839 27.1278 12.0161C27.4851 11.5483 27.7412 11.0114 27.8799 10.4394C28.0186 9.86738 28.0369 9.27278 27.9336 8.69332C27.8303 8.11387 27.6076 7.56222 27.2798 7.0734C26.9519 6.58457 26.526 6.16925 26.0291 5.85379C25.5322 5.53833 24.9751 5.32963 24.3932 5.24093C23.8113 5.15223 23.2174 5.18547 22.649 5.33853C22.0807 5.4916 21.5504 5.76116 21.0918 6.13009C19.551 7.11591 9.25917 13.8354 5.5837 19.7321C3.69413 22.7645 3.55502 25.5785 3.92937 27.6976C4.15605 29.058 4.64976 30.3601 5.38203 31.5289Z" fill="#40C9A2"></path>
<path d="M27.8475 30.9366C30.3654 30.9366 32.4065 28.8955 32.4065 26.3776C32.4065 23.8598 30.3654 21.8187 27.8475 21.8187C25.3297 21.8187 23.2886 23.8598 23.2886 26.3776C23.2886 28.8955 25.3297 30.9366 27.8475 30.9366Z" fill="#2F9C95"></path>
</svg><style>@media (prefers-color-scheme: light) { :root { filter: none; } }
@media (prefers-color-scheme: dark) { :root { filter: none; } }
</style></svg>