<svg width="557" height="660" viewBox="0 0 557 660" fill="none" xmlns="http://www.w3.org/2000/svg">
<g filter="url(#filter0_f_752_703)">
<ellipse cx="205.599" cy="691.094" rx="116.589" ry="107.126" fill="#8299F1" fill-opacity="0.5"/>
</g>
<g filter="url(#filter1_f_752_703)">
<path d="M257.696 621.088C230.192 694.29 103.154 714.277 -26.0519 665.732C-155.258 617.186 -237.704 518.489 -210.2 445.287C-182.696 372.085 -92.0578 448.977 37.1482 497.523C166.354 546.069 285.2 547.886 257.696 621.088Z" fill="#40C9A2" fill-opacity="0.2"/>
</g>
<g filter="url(#filter2_f_752_703)">
<ellipse cx="659.48" cy="-62.6881" rx="143.407" ry="128.312" fill="#F8E475" fill-opacity="0.5"/>
</g>
<g filter="url(#filter3_f_752_703)">
<path d="M741.986 122.334C717.176 188.365 602.582 206.395 486.032 162.604C369.482 118.814 295.112 29.7853 319.922 -36.2463C344.732 -102.278 426.492 -32.918 543.041 10.8727C659.591 54.6633 766.795 56.302 741.986 122.334Z" fill="#40C9A2" fill-opacity="0.3"/>
</g>
<defs>
<filter id="filter0_f_752_703" x="-62.4044" y="432.554" width="536.007" height="517.08" filterUnits="userSpaceOnUse" color-interpolation-filters="sRGB">
<feFlood flood-opacity="0" result="BackgroundImageFix"/>
<feBlend mode="normal" in="SourceGraphic" in2="BackgroundImageFix" result="shape"/>
<feGaussianBlur stdDeviation="75.7072" result="effect1_foregroundBlur_752_703"/>
</filter>
<filter id="filter1_f_752_703" x="-366.905" y="263.694" width="780.013" height="579.967" filterUnits="userSpaceOnUse" color-interpolation-filters="sRGB">
<feFlood flood-opacity="0" result="BackgroundImageFix"/>
<feBlend mode="normal" in="SourceGraphic" in2="BackgroundImageFix" result="shape"/>
<feGaussianBlur stdDeviation="75.7072" result="effect1_foregroundBlur_752_703"/>
</filter>
<filter id="filter2_f_752_703" x="310.225" y="-396.848" width="698.511" height="668.32" filterUnits="userSpaceOnUse" color-interpolation-filters="sRGB">
<feFlood flood-opacity="0" result="BackgroundImageFix"/>
<feBlend mode="normal" in="SourceGraphic" in2="BackgroundImageFix" result="shape"/>
<feGaussianBlur stdDeviation="102.924" result="effect1_foregroundBlur_752_703"/>
</filter>
<filter id="filter3_f_752_703" x="109.301" y="-269.317" width="842.139" height="661.688" filterUnits="userSpaceOnUse" color-interpolation-filters="sRGB">
<feFlood flood-opacity="0" result="BackgroundImageFix"/>
<feBlend mode="normal" in="SourceGraphic" in2="BackgroundImageFix" result="shape"/>
<feGaussianBlur stdDeviation="102.924" result="effect1_foregroundBlur_752_703"/>
</filter>
</defs>
</svg>
